# xmcd
# 
# Track frame offsets:
#     182
#     19600
#     36625
#     51935
#     69110
#     84802
#     104085
#     121405
#     136320
#     156507
#     173662
#     189582
# 
# Disc length: 2795
# 
# Revision: 3
# Processed by: cddbd v1.5.2PL0 Copyright (c) Steve Scherf et al.
# Submitted via: BonkEnc v1.0
# 
DISCID=a00ae90c
DTITLE=Mark Wills - Loving Every Minute
DYEAR=2001
DGENRE=Country
TTITLE0=Loving Every Minute
TTITLE1=One Of These Days
TTITLE2=In My Heaven
TTITLE3=Back On Earth
TTITLE4=I Hate Chicago
TTITLE5=Universe
TTITLE6=Somebody
TTITLE7=I'll Be Around
TTITLE8=Lost In A Kiss
TTITLE9=The Balloon Song
TTITLE10=Love Can't
TTITLE11=I'm Not Gonna Do Anything Without You (With Jamie O'Neal)
EXTD=YEAR: 2001 ID3G: 2
EXTT0=
EXTT1=
EXTT2=
EXTT3=
EXTT4=
EXTT5=
EXTT6=
EXTT7=
EXTT8=
EXTT9=
EXTT10=
EXTT11=
PLAYORDER=
